<?xml version="1.0" encoding="utf-8"?>
<!-- Svg Vector Icons : http://www.onlinewebfonts.com/icon -->
<!DOCTYPE svg PUBLIC "-//W3C//DTD SVG 1.1//EN" "http://www.w3.org/Graphics/SVG/1.1/DTD/svg11.dtd">
<svg version="1.1" xmlns="http://www.w3.org/2000/svg" xmlns:xlink="http://www.w3.org/1999/xlink" x="0px" y="0px" viewBox="0 0 256 256" enable-background="new 0 0 256 256" xml:space="preserve">
<metadata> Svg Vector Icons : http://www.onlinewebfonts.com/icon </metadata>
<g><g><path fill="#000000" d="M83,206.7V101.5H49.3v105.2H83L83,206.7z M67.4,85.6c11.2,0,18.3-8,18.3-18.1c-0.2-10.3-7-18.1-18.1-18.1c-11.1,0-18.3,7.9-18.3,18.1c0,10.1,7,18.1,17.8,18.1H67.4L67.4,85.6z"/><path fill="#000000" d="M167.8,99.1c-17.9,0-25.6,10.1-30.5,17.1v-14.6h-33.8v105.1h33.8v-59.9c0-3.1,0.2-6.1,1.2-8.3c2.5-6.1,8-12.5,17.3-12.5c12.2,0,17.1,9.4,17.1,23.2v57.5h33.8v-61.4C206.7,113.8,190,99.1,167.8,99.1z"/><path fill="#000000" d="M227.1,10h-197C19.4,10,10,17.7,10,28.4v197.4c0,10.7,9.4,20.2,20.2,20.2h196.9c10.8,0,18.9-9.6,18.9-20.2V28.4C246.1,17.7,237.9,10,227.1,10z M225.2,226.4c-0.7,0-192.5,0-193.6,0s-1.9-0.9-1.9-1.9c0-1,0-192.9,0-193.6c0-0.7,0.6-1.2,1.2-1.2s193.7,0,194.3,0s1.2,0.6,1.2,1.2c0,14.3,0,193.6,0,194.3C226.4,225.7,225.9,226.4,225.2,226.4z"/></g></g>
</svg>